<?xml version="1.0" encoding="utf-8"?>
<!-- Generator: Adobe Illustrator 19.0.0, SVG Export Plug-In . SVG Version: 6.00 Build 0)  -->
<svg version="1.1" id="layer" xmlns="http://www.w3.org/2000/svg" xmlns:xlink="http://www.w3.org/1999/xlink" x="0px" y="0px"
	 viewBox="-153 -46 652 652" style="enable-background:new -153 -46 652 652;" xml:space="preserve">
<style type="text/css">
	.st0{fill:#E60000;}
	.st1{fill:#FFFFFF;}
</style>
<path class="st0" d="M21.4,279.9c0,40.9-33.1,74-74,74c-40.9,0-74-33.1-74-74s33.1-74,74-74C-11.8,205.9,21.4,239,21.4,279.9
	 M81.2,310.5l22-54H89.1l-13.7,35.8l-14.1-35.8H46.5l22.6,54H81.2z M156.2,283.3c0-3.5-0.5-6.9-1.6-10.3c-1.1-3.4-2.7-6.4-4.9-9
	c-2.2-2.6-4.9-4.8-8.1-6.4c-3.2-1.6-7-2.4-11.3-2.4c-4.3,0-8.1,0.8-11.4,2.4c-3.2,1.6-5.9,3.7-8.1,6.4c-2.1,2.7-3.7,5.7-4.8,9
	c-1.1,3.4-1.6,6.8-1.6,10.3c0,3.5,0.5,7,1.6,10.4c1.1,3.4,2.7,6.4,4.8,9.1c2.1,2.7,4.8,4.9,8.1,6.5c3.2,1.6,7,2.5,11.4,2.5
	c4.3,0,8.1-0.8,11.4-2.5c3.2-1.6,5.9-3.8,8.1-6.5c2.1-2.7,3.7-5.7,4.8-9.1C155.7,290.3,156.2,286.8,156.2,283.3 M142.5,283.2
	c0,2.3-0.3,4.5-0.8,6.5c-0.5,2-1.3,3.7-2.4,5.2c-1,1.5-2.3,2.7-3.8,3.5s-3.2,1.3-5.3,1.3s-3.8-0.4-5.3-1.3c-1.5-0.9-2.8-2-3.8-3.5
	c-1-1.5-1.8-3.2-2.3-5.2c-0.5-2-0.8-4.1-0.8-6.5c0-2.2,0.3-4.4,0.8-6.4c0.5-2,1.3-3.8,2.4-5.2c1-1.5,2.3-2.6,3.8-3.5
	s3.3-1.3,5.3-1.3s3.8,0.4,5.3,1.3s2.8,2,3.8,3.5c1,1.5,1.8,3.2,2.4,5.2C142.3,278.9,142.5,281,142.5,283.2 M211.8,310.5v-74.7h-13.9
	v20.9c-3.3-1-6.3-1.6-9.2-1.6c-4.3,0-8.1,0.8-11.3,2.4c-3.2,1.6-5.9,3.7-8,6.4c-2.1,2.7-3.7,5.7-4.7,9c-1,3.4-1.6,6.8-1.6,10.3
	c0,3.7,0.5,7.3,1.5,10.7c1,3.4,2.5,6.5,4.4,9.1c1.9,2.6,4.3,4.7,7.1,6.3c2.8,1.6,6.1,2.4,9.8,2.4c2.8,0,5.3-0.5,7.4-1.6
	c2.1-1.1,3.8-2.3,5-3.8l0.6,4.1H211.8z M197.9,295.2c-0.7,1.3-2,2.4-3.8,3.3c-1.8,0.9-3.5,1.4-5.2,1.4c-2.1,0-3.9-0.5-5.4-1.4
	c-1.5-0.9-2.8-2.2-3.8-3.7c-1-1.5-1.7-3.3-2.2-5.4c-0.5-2.1-0.7-4.2-0.7-6.5c0-2,0.3-4,0.8-5.9c0.6-1.9,1.4-3.6,2.5-5.2
	c1.1-1.5,2.5-2.8,4.2-3.7c1.7-0.9,3.8-1.4,6.1-1.4c2.3,0,4.8,0.5,7.5,1.6V295.2z M264.7,310.5v-34.7c0-3.7-0.5-6.8-1.5-9.3
	c-1-2.6-2.4-4.7-4.2-6.4c-1.8-1.7-3.9-2.9-6.4-3.7c-2.5-0.8-5.2-1.2-8.2-1.2c-2.5,0-4.9,0.2-7.1,0.7c-2.2,0.5-4.2,1.1-5.9,1.8
	c-1.8,0.7-3.2,1.4-4.5,2.2c-1.2,0.8-2.1,1.4-2.7,1.9l4.6,9.7c0.5-0.4,1.2-1,2.1-1.5c0.9-0.6,1.9-1.1,3-1.7s2.4-1,3.8-1.4
	c1.4-0.4,2.9-0.6,4.5-0.6c2.7,0,4.8,0.6,6.4,1.9c1.5,1.3,2.3,3.4,2.3,6.4v0.8c-1.4,0.1-3.2,0.3-5.3,0.5c-2.1,0.2-4.1,0.5-5.9,0.8
	c-2.5,0.4-5,1.1-7.3,2c-2.3,0.9-4.4,2.1-6.2,3.5c-1.8,1.4-3.2,3.2-4.3,5.2c-1.1,2.1-1.6,4.4-1.6,7.1c0,2.7,0.5,5.1,1.5,7.2
	c1,2.1,2.3,3.9,4,5.4c1.6,1.5,3.5,2.6,5.7,3.4c2.1,0.8,4.4,1.2,6.7,1.2c2.8,0,5.3-0.5,7.6-1.4c2.3-0.9,4.2-2.2,5.7-3.9l0.6,4H264.7z
	 M250.9,296.2c-1.2,1.1-2.7,2.1-4.3,2.8c-1.7,0.7-3.4,1.1-5.2,1.1c-2.4,0-4.3-0.5-5.6-1.6c-1.3-1.1-2-2.5-2-4.3
	c0-1.7,0.6-3.3,1.7-4.8c1.2-1.5,3.3-2.5,6.3-3.1c1.4-0.3,2.9-0.5,4.5-0.7c1.6-0.2,3.1-0.3,4.6-0.4V296.2z M309.1,236.6
	c-0.4-0.2-1.7-0.7-3.9-1.3c-2.2-0.6-5-1-8.3-1c-2.5,0-4.9,0.4-7.1,1.1c-2.2,0.7-4.1,1.8-5.7,3.4c-1.6,1.5-2.9,3.5-3.8,5.9
	c-0.9,2.4-1.3,5.4-1.3,8.9v2.9H272v11.2h7.2v42.8H293v-42.8h11.5v-11.2h-11.6V254c0-2.6,0.7-4.5,2-5.7c1.3-1.2,2.9-1.7,4.9-1.7
	c2.2,0,3.9,0.2,5.2,0.6c1.3,0.4,2.2,0.7,2.6,1L309.1,236.6z M359.1,283.3c0-3.5-0.5-6.9-1.6-10.3c-1.1-3.4-2.7-6.4-4.9-9
	c-2.2-2.6-4.9-4.8-8.1-6.4c-3.2-1.6-7-2.4-11.3-2.4c-4.3,0-8.1,0.8-11.4,2.4c-3.2,1.6-5.9,3.7-8.1,6.4c-2.1,2.7-3.7,5.7-4.8,9
	c-1.1,3.4-1.6,6.8-1.6,10.3c0,3.5,0.5,7,1.6,10.4c1.1,3.4,2.7,6.4,4.8,9.1c2.1,2.7,4.8,4.9,8.1,6.5c3.2,1.6,7,2.5,11.4,2.5
	c4.3,0,8.1-0.8,11.4-2.5c3.2-1.6,5.9-3.8,8.1-6.5c2.1-2.7,3.7-5.7,4.8-9.1C358.6,290.3,359.1,286.8,359.1,283.3 M345.4,283.2
	c0,2.3-0.3,4.5-0.8,6.5c-0.5,2-1.3,3.7-2.4,5.2c-1,1.5-2.3,2.7-3.8,3.5s-3.2,1.3-5.3,1.3c-2,0-3.8-0.4-5.3-1.3s-2.8-2-3.8-3.5
	c-1-1.5-1.8-3.2-2.3-5.2c-0.5-2-0.8-4.1-0.8-6.5c0-2.2,0.3-4.4,0.8-6.4c0.5-2,1.3-3.8,2.4-5.2c1-1.5,2.3-2.6,3.8-3.5
	c1.5-0.9,3.3-1.3,5.3-1.3c2,0,3.8,0.4,5.3,1.3s2.8,2,3.8,3.5c1,1.5,1.8,3.2,2.4,5.2C345.2,278.9,345.4,281,345.4,283.2 M416.1,310.5
	v-31.9c0-4.2-0.5-7.8-1.4-10.8c-0.9-3-2.3-5.4-4-7.3c-1.7-1.9-3.8-3.2-6.2-4.1c-2.4-0.9-5-1.3-7.8-1.3c-2.8,0-5.5,0.5-8.2,1.5
	c-2.7,1-5.2,2.4-7.3,4.1l-0.7-4.3h-12.7v54h13.9v-38.3c1.3-1.3,2.9-2.6,4.8-3.7s3.8-1.7,6-1.7c3.1,0,5.4,1.1,7.2,3.4
	c1.7,2.2,2.6,5.4,2.6,9.5v30.8H416.1z M473.4,287v-2.5c0-5.2-0.6-9.6-1.8-13.3c-1.2-3.7-2.9-6.8-5-9.1c-2.1-2.3-4.6-4.1-7.6-5.2
	c-2.9-1.1-6.1-1.7-9.5-1.7c-3.4,0-6.7,0.6-9.7,1.9c-3,1.3-5.7,3.1-8,5.5c-2.3,2.4-4.1,5.3-5.4,8.8c-1.3,3.5-2,7.5-2,12.1
	c0,4.9,0.7,9,2.1,12.5c1.4,3.5,3.3,6.4,5.7,8.8c2.4,2.4,5.2,4.1,8.3,5.2c3.2,1.1,6.5,1.7,10,1.7c2.8,0,5.3-0.2,7.6-0.6
	c2.3-0.4,4.3-0.9,6.1-1.5c1.7-0.6,3.2-1.2,4.3-1.8c1.2-0.6,2-1.1,2.5-1.5l-3.7-11.3c-0.5,0.4-1.1,0.9-2,1.5c-0.9,0.5-2,1-3.3,1.6
	c-1.3,0.5-2.7,1-4.4,1.3c-1.6,0.3-3.4,0.5-5.3,0.5c-4,0-7.3-1-9.9-3c-2.6-2-4-5.3-4.3-9.9H473.4z M438.7,277
	c0.4-3.6,1.7-6.3,3.8-8.1c2.2-1.8,4.5-2.7,6.9-2.7c1.1,0,2.2,0.2,3.3,0.6c1.1,0.4,2.1,1,3,1.9c0.9,0.9,1.7,2,2.4,3.4
	c0.6,1.4,1,3,1.2,4.9H438.7z"/>
<path class="st1" d="M-52,321.1c-20.3,0.1-41.5-17.3-41.6-45.1c-0.1-18.4,9.9-36.2,22.6-46.7c12.4-10.3,29.4-16.8,44.8-16.9
	c2,0,4.1,0.2,5.3,0.6c-13.5,2.8-24.2,15.3-24.1,29.5c0,0.5,0,1,0.1,1.2c22.5,5.5,32.8,19.1,32.8,37.9C-12.1,300.4-26.9,321-52,321.1
	"/>
</svg>
